<svg xmlns="http://www.w3.org/2000/svg" width="76" height="71" viewBox="0 0 76 71" fill="none">
  <path d="M24.5 7H8C5.23858 7 3 9.23858 3 12V63C3 65.7614 5.23858 68 8 68H68C70.7614 68 73 65.7614 73 63V12C73 9.23858 70.7614 7 68 7H51" stroke="#DD7D00" stroke-width="6" stroke-linecap="round"/>
  <path d="M3 22L73 22" stroke="#DD7D00" stroke-width="6" stroke-linecap="round"/>
  <path d="M28 3L28 11" stroke="#DD7D00" stroke-width="6" stroke-linecap="round"/>
  <path d="M48 3L48 11" stroke="#DD7D00" stroke-width="6" stroke-linecap="round"/>
  <path d="M37.5489 28.927C37.8483 28.0057 39.1517 28.0057 39.4511 28.9271L42.2045 37.4012C42.3384 37.8132 42.7223 38.0922 43.1555 38.0922L52.0658 38.0922C53.0345 38.0922 53.4373 39.3318 52.6536 39.9012L45.445 45.1385C45.0945 45.3932 44.9479 45.8446 45.0818 46.2566L47.8352 54.7308C48.1345 55.6521 47.0801 56.4182 46.2963 55.8488L39.0878 50.6115C38.7373 50.3568 38.2627 50.3568 37.9122 50.6115L30.7037 55.8488C29.9199 56.4182 28.8655 55.6521 29.1648 54.7307L31.9182 46.2566C32.0521 45.8446 31.9055 45.3932 31.555 45.1385L24.3464 39.9012C23.5627 39.3318 23.9655 38.0922 24.9342 38.0922L33.8445 38.0922C34.2777 38.0922 34.6616 37.8132 34.7955 37.4012L37.5489 28.927Z" fill="#DD7D00"/>
</svg>