<svg xmlns="http://www.w3.org/2000/svg" width="66" height="66" viewBox="0 0 66 66" fill="none">
  <g clip-path="url(#clip0_68_89)">
    <path d="M9.89999 29.7V59.4H33V29.7H9.89999ZM29.7 56.1H13.2V33H29.7V56.1Z" fill="#DD7D00"/>
    <path d="M66 19.8V13.1988C66 12.8436 65.9428 12.4915 65.8306 12.155L62.5306 2.25612C62.0818 0.90866 60.8202 0 59.4 0H6.6C5.17984 0 3.91823 0.90866 3.46938 2.25612L0.169383 12.155C0.0572344 12.4917 0 12.8436 0 13.1988V19.8C0 21.6227 1.47727 23.1 3.3 23.1V62.7H1.65C0.738117 62.7 0 63.4381 0 64.35C0 65.2619 0.738117 66 1.65 66H64.35C65.2619 66 66 65.2619 66 64.35C66 63.4381 65.2619 62.7 64.35 62.7H62.7V23.1C64.5227 23.1 66 21.6227 66 19.8ZM59.4 3.3L62.15 11.55H49.8421L47.7433 3.3H59.4ZM34.65 3.3H44.3345L46.397 11.55H34.65V3.3ZM34.65 14.85H46.86V19.8H34.65V14.85ZM21.6657 3.3H31.35V11.55H19.603L21.6657 3.3ZM19.14 14.85H31.35V19.8H19.14V14.85ZM6.6 3.3H18.2567L16.1579 11.55H3.85004L6.6 3.3ZM3.3 14.85H15.84V19.8H6.6H3.3V14.85ZM52.8 62.7H39.6V49.5H42.9V46.2H39.6V33H52.8V62.7ZM59.4 62.7H56.1V29.7H36.3V62.7H6.6V23.1H59.4V62.7ZM59.4 19.8H50.16V14.85H62.7V19.8H59.4Z" fill="#DD7D00"/>
  </g>
  <defs>
    <clipPath id="clip0_68_89">
      <rect width="66" height="66" fill="white"/>
    </clipPath>
  </defs>
</svg>